<?xml version="1.0" standalone="no"?>
<!DOCTYPE svg PUBLIC "-//W3C//DTD SVG 20010904//EN"
 "http://www.w3.org/TR/2001/REC-SVG-20010904/DTD/svg10.dtd">
<svg version="1.0" xmlns="http://www.w3.org/2000/svg"
 width="666.000000pt" height="666.000000pt" viewBox="0 0 666.000000 666.000000"
 preserveAspectRatio="xMidYMid meet">
<metadata>
Created by potrace 1.14, written by Peter Selinger 2001-2017
</metadata>
<g transform="translate(0.000000,666.000000) scale(0.100000,-0.100000)"
fill="#000000" stroke="none">
<path d="M1729 4300 c-1 -3 -2 -359 -3 -792 -1 -519 2 -788 9 -789 25 -3 271
-5 280 -2 6 2 10 127 10 348 l-1 345 352 0 c221 0 354 4 356 10 2 5 2 61 0
125 l-3 115 -352 2 -352 3 0 190 0 190 402 0 403 -1 0 131 0 132 -550 -1
c-302 0 -551 -3 -551 -6z"/>
<path d="M3027 4302 c-2 -4 -4 -362 -3 -797 l1 -790 405 1 c433 0 496 4 588
33 253 81 357 255 317 526 -9 55 -55 153 -94 198 -18 20 -62 51 -98 69 -65 32
-66 32 -42 47 13 8 47 38 75 66 68 69 96 141 96 250 2 202 -88 318 -292 381
-47 14 -116 17 -502 20 -246 1 -449 -1 -451 -4z m853 -264 c65 -30 92 -82 93
-180 0 -91 -30 -143 -108 -186 -25 -14 -71 -17 -287 -20 l-256 -3 0 205 1 205
261 -3 c213 -2 268 -6 296 -18z m22 -627 c97 -33 149 -116 142 -228 -5 -100
-53 -168 -144 -204 -26 -10 -100 -13 -305 -14 l-270 0 -1 233 -2 233 265 -1
c220 -2 273 -5 315 -19z"/>
<path d="M4568 4303 c-3 -7 -2 -1567 1 -1584 1 -7 291 -7 293 0 0 3 2 363 3
799 l1 792 -147 0 c-81 0 -149 -3 -151 -7z"/>
</g>
</svg>
