<?xml version="1.0" standalone="no"?>
<!DOCTYPE svg PUBLIC "-//W3C//DTD SVG 20010904//EN"
 "http://www.w3.org/TR/2001/REC-SVG-20010904/DTD/svg10.dtd">
<svg version="1.0" xmlns="http://www.w3.org/2000/svg"
 width="309.000000pt" height="309.000000pt" viewBox="0 0 309.000000 309.000000"
 preserveAspectRatio="xMidYMid meet">
<metadata>
Created by potrace 1.14, written by Peter Selinger 2001-2017
</metadata>
<g transform="translate(0.000000,309.000000) scale(0.100000,-0.100000)"
fill="#000000" stroke="none">
<path d="M1456 3024 c-64 -48 -94 -65 -109 -61 -12 3 -53 14 -90 25 l-69 20 7
-27 c3 -14 8 -34 11 -43 6 -21 4 -21 -61 -4 l-50 13 -50 -45 -50 -44 -8 36
c-5 20 -12 36 -15 36 -4 0 -32 -32 -62 -70 l-55 -70 -110 6 -110 5 -29 -100
c-16 -56 -34 -106 -41 -111 -7 -6 -47 -23 -90 -39 l-77 -28 37 -30 37 -31 -60
-23 -61 -23 -11 -62 -12 -62 -34 20 -34 20 -2 -54 c-1 -29 -2 -62 -3 -73 -1
-11 -3 -29 -4 -40 -1 -13 -31 -39 -90 -78 l-89 -58 35 -107 35 -107 -46 -70
c-25 -38 -46 -73 -46 -77 0 -5 18 -8 40 -8 22 0 40 -2 40 -5 0 -2 -14 -28 -31
-56 -27 -46 -29 -56 -19 -78 41 -87 42 -89 15 -87 -50 6 -50 -9 0 -85 l48 -73
-32 -91 c-18 -49 -35 -97 -37 -105 -2 -10 21 -31 65 -59 115 -75 112 -71 116
-153 1 -40 3 -81 4 -91 1 -16 5 -15 38 7 20 14 38 24 40 23 1 -2 4 -30 6 -63
l4 -59 57 -34 57 -34 -32 -19 c-17 -11 -28 -23 -23 -27 5 -5 43 -20 85 -36
l77 -27 30 -101 29 -102 111 -3 111 -3 58 -70 58 -70 18 41 18 41 35 -37 c19
-21 34 -42 34 -47 0 -6 28 -8 69 -4 l69 6 -9 -32 c-12 -42 -11 -50 4 -40 6 4
22 9 34 11 12 1 41 9 64 17 59 21 64 20 131 -32 33 -27 71 -56 83 -66 23 -17
24 -16 110 48 48 36 90 65 94 65 14 -1 150 -38 160 -44 14 -9 14 14 1 50 -6
15 -9 29 -6 31 2 3 29 -2 60 -10 l55 -14 48 43 48 43 16 -36 15 -37 55 72 54
72 112 -2 112 -3 32 106 32 106 51 18 c28 10 67 25 86 33 l34 14 -34 28 -35
29 40 16 c66 26 69 30 83 91 7 32 15 60 17 62 2 2 16 -5 31 -17 15 -12 29 -20
31 -18 2 2 5 43 8 92 2 48 5 88 7 89 9 6 173 119 175 121 2 1 -13 47 -33 103
l-37 102 39 63 c21 34 45 69 53 77 13 13 9 15 -32 18 -26 2 -47 6 -47 9 0 3
14 28 31 56 l31 50 -21 46 c-32 71 -31 75 12 72 l38 -3 -41 64 c-23 35 -45 67
-51 73 -15 15 -11 35 27 134 19 52 31 97 26 100 -5 3 -47 32 -93 65 l-84 58
-2 85 c-1 47 -4 87 -7 90 -3 3 -21 -6 -41 -21 l-35 -27 -1 28 c-4 99 -8 107
-70 138 l-51 26 33 24 32 25 -34 14 c-19 7 -58 22 -87 32 l-52 19 -24 80 c-14
44 -28 92 -31 107 l-7 27 -113 -5 c-110 -5 -113 -4 -128 19 -9 13 -22 30 -29
38 -8 8 -24 29 -37 47 -28 40 -36 40 -47 0 -5 -17 -14 -33 -19 -34 -6 -2 -23
15 -40 37 l-30 40 -67 -6 -67 -5 11 30 c6 17 8 34 4 37 -3 3 -38 -4 -78 -16
-40 -11 -79 -21 -86 -21 -7 0 -45 25 -85 57 -40 31 -77 60 -83 65 -7 5 -44
-17 -98 -58z"/>
</g>
</svg>
